<svg width="18" height="18" viewBox="0 0 18 18" fill="none" xmlns="http://www.w3.org/2000/svg">
<g id="icon_question mark">
<path id="Vector" d="M0.853974 4.11472L0.854017 4.11473C1.02986 3.3208 1.49454 2.58587 2.08873 2.0173C2.68269 1.44895 3.4359 1.01814 4.22618 0.864465C5.09856 0.690333 7.44402 0.484351 9 0.500948C10.556 0.48435 12.9015 0.690337 13.7738 0.86447C14.5641 1.01815 15.3173 1.44896 15.9113 2.0173C16.4457 2.52867 16.8753 3.1746 17.0843 3.877L17.0987 3.88422L17.148 4.12154C17.3251 4.9747 17.4981 6.13091 17.5006 7.70173L17.5006 7.70336C17.4981 9.27417 17.3251 10.4304 17.148 11.2835L17.1466 11.29L17.1466 11.29C16.9708 12.084 16.5061 12.8189 15.9119 13.3875C15.3179 13.9558 14.5647 14.3866 13.7745 14.5403C13.774 14.5404 13.7735 14.5405 13.7731 14.5406L13.6778 14.0497C13.2294 14.1394 12.3481 14.2404 11.3909 14.3116L0.853974 4.11472ZM0.853974 4.11472L0.852623 4.12123C0.675527 4.9744 0.502564 6.13092 0.499998 7.70173L0.500001 7.70336C0.502564 9.27417 0.675529 10.4304 0.852623 11.2835L0.85258 11.2835L0.854017 11.29C1.02986 12.084 1.49454 12.8189 2.08873 13.3875C2.68266 13.9558 3.43581 14.3866 4.22603 14.5403M0.853974 4.11472L4.22603 14.5403M6.54525 15.1309C7.05845 15.9081 7.45545 16.456 7.76077 16.8433L7.76078 16.8433C8.0791 17.2471 8.51451 17.5 9.00016 17.5C9.48581 17.5 9.92121 17.2471 10.2395 16.8433L10.2395 16.8433C10.5449 16.4559 10.9416 15.908 11.455 15.131C11.5327 15.0134 11.6067 14.9001 11.6773 14.7909L6.9625 14.8554M6.54525 15.1309L6.9625 14.8554M6.54525 15.1309C6.54535 15.131 6.54544 15.1312 6.54554 15.1313L6.9625 14.8554M6.54525 15.1309C6.46762 15.0136 6.39353 14.9002 6.32282 14.7909M6.9625 14.8554C6.83531 14.6632 6.71781 14.4819 6.60937 14.3116M6.32282 14.7909C6.4054 14.7975 6.48862 14.804 6.57226 14.8102L6.60937 14.3116M6.32282 14.7909C5.45791 14.721 4.66457 14.6279 4.22603 14.5403M6.32282 14.7909C6.27629 14.7189 6.23123 14.6487 6.18761 14.5801L6.60937 14.3116M6.60937 14.3116L4.22603 14.5403M7.63834 6.01719C7.7565 5.64413 7.96424 5.32647 8.27874 5.1069C8.59056 4.88921 8.9635 4.79848 9.36062 4.79848C9.72991 4.79848 10.0879 4.88852 10.3665 5.09995C10.6581 5.32122 10.8275 5.65138 10.8275 6.03223C10.8275 6.30298 10.7634 6.57552 10.5409 6.85032C10.3443 7.09314 10.0407 7.31568 9.62484 7.56041C9.22163 7.80015 8.99128 8.00986 8.84936 8.21555C8.70919 8.41871 8.635 8.65353 8.635 8.95942V9.26723C8.635 9.46734 8.79864 9.63098 8.99875 9.63098C9.19886 9.63098 9.3625 9.46734 9.3625 9.26723V9.13442C9.3625 8.89183 9.40731 8.63987 9.61385 8.38655C9.7846 8.17712 10.0483 7.99185 10.3857 7.7838L10.3873 7.78286C10.8905 7.47511 11.1902 7.20597 11.3777 6.94078L11.3778 6.9406C11.5657 6.67507 11.66 6.37819 11.66 6.0091C11.66 5.48418 11.4353 5.00144 11.0112 4.64276C10.5961 4.29182 9.98615 4.08254 9.36031 4.08254C8.71816 4.08254 8.15826 4.24882 7.72941 4.54101L7.63834 6.01719ZM7.63834 6.01719C7.58461 6.18661 7.42748 6.30442 7.23812 6.30442L7.63834 6.01719ZM9.38737 12.254C9.3883 12.2532 9.3893 12.2523 9.39031 12.2513C9.39078 12.2508 9.39123 12.2504 9.39165 12.2499C9.39216 12.2493 9.39264 12.2488 9.39308 12.2483C9.40728 12.1589 9.42093 12.0341 9.42094 11.8608C9.42065 11.6876 9.40707 11.5628 9.39302 11.473C9.39223 11.472 9.39132 11.4711 9.39031 11.47C9.38928 11.469 9.38826 11.4681 9.3873 11.4673C9.29789 11.4531 9.17316 11.4394 8.99981 11.4394C8.82665 11.4397 8.70177 11.4533 8.61201 11.4673C8.61107 11.4681 8.61007 11.469 8.60906 11.47C8.60827 11.4708 8.60755 11.4716 8.60689 11.4724L9.38737 12.254ZM9.38737 12.254C9.29761 12.2681 9.17272 12.2816 8.99957 12.2819C8.82621 12.2819 8.70147 12.2683 8.61207 12.2541C8.61111 12.2533 8.6101 12.2523 8.60906 12.2513C8.60805 12.2503 8.60714 12.2493 8.60635 12.2483C8.59229 12.1585 8.57871 12.0336 8.57844 11.8603C8.57846 11.6871 8.5921 11.5624 8.6063 11.4731L9.38737 12.254ZM7.20607 6.30317C7.07452 6.29346 6.95893 6.22654 6.88482 6.11668L6.88472 6.11653C6.81155 6.00814 6.79347 5.8789 6.83244 5.75718C6.99639 5.24628 7.30717 4.82882 7.72936 4.54105L7.20607 6.30317ZM8.60367 11.4766C8.60373 11.4765 8.60381 11.4764 8.60391 11.4762L8.60354 11.4768C8.60353 11.4768 8.60358 11.4768 8.60367 11.4766Z" fill="#83B7FF" stroke="black"/>
</g>
</svg>
